<?xml version="1.0" encoding="UTF-8"?><svg id="Layer_2" xmlns="http://www.w3.org/2000/svg" viewBox="0 0 321.77 187.66"><defs><style>.cls-1{fill:#d1836b;}</style></defs><g id="Layer_1-2"><path class="cls-1" d="M255.43,37.51c4.72,8.6,8.34,17.22,10.83,25.37-6.43-6.24-14.77-12.42-24.47-17.87,1.09-1.65,2.16-3.37,3.19-5.15.89-1.54,1.72-3.08,2.5-4.62-2.51,3.17-5.13,6.06-7.78,8.62-7.68,7.42-15.64,12.13-22.14,13.09,2.53-6.15,4.61-13.09,6.05-20.55-5.85-2.27-11.55-4.01-16.92-5.2,5.84-1.72,12.11-4.02,18.6-6.85.75-8.73.39-16.85-.92-23.74-.04-.2-.08-.41-.12-.61.14.1.29.2.43.31,5.53,4.02,11.2,9.49,16.64,16.12,5.11-2.81,9.93-5.75,14.38-8.74,2.98-2.01,5.8-4.03,8.43-6.06-1.64,8.57-6.07,18.75-12.93,28.62,1.46,2.34,2.88,4.76,4.25,7.25Z"/><path class="cls-1" d="M218.54.96c-46.99,8.96-91.88,26.74-132.3,52.31C123.99,23.65,170.74,5.17,218.54.96h0Z"/><path class="cls-1" d="M200.82,31.14c-38.56,4.56-76.12,14.54-111.93,29.52,33.79-19.37,72.98-29.74,111.93-29.52h0Z"/><path class="cls-1" d="M216.05,51.17c-41.99-5.95-85.76-.2-124.49,16.94,39.74-13.53,81.98-18.4,123.56-14.42.32-.83.63-1.67.93-2.52Z"/><path class="cls-1" d="M230.36,55.55c8.31,1.23,16.57,2.82,24.77,4.77-7.4-2.47-14.94-4.51-22.56-6.18-.74.5-1.47.97-2.2,1.41Z"/><path class="cls-1" d="M29.96,129.57l-2.64-.61c-5.19,10.9-7.56,14.24-9.49,14.24-3.69,0-21.01-19.6-17.32-22.15,1.49-1.05,11.78,1.32,25.22,4.57,4.75-10.2,12.22-27.07,24.08-54.23.26-.53.7-.88,1.32-.88.79,0,1.41.62,1.41,1.41,0,.18-.09.44-.09.62-11.51,26.19-18.9,43.07-23.91,53.79l2.11.53c25.58,6.42,66.79,8.75,91.49,11.48.7.09,1.23.7,1.23,1.41,0,.79-.62,1.49-1.41,1.41-25.22-2.02-66.35-5.59-92.01-11.57ZM24.59,128.25c-12.83-3.08-21.01-5.1-21.27-4.92-.79.53,12.39,17.05,14.5,17.05.7,0,2.28-2.64,6.77-12.13Z"/><path class="cls-1" d="M42.35,119.57c0-1.49.53-3.34,1.76-5.45,5.54-9.49,14.94-18.11,21.8-18.11,2.55,0,4.4,1.23,4.4,3.34,0,.35-.09.97-.26,1.49-1.85,4.92-11.25,10.28-19.69,12.92l-.44.09c-.79,0-1.41-.62-1.41-1.41-.7.97-1.32,2.02-1.93,3.08-1.06,1.76-1.41,2.99-1.41,4.04,0,1.93,1.23,2.55,3.08,2.55,5.98,0,21.01-7.47,31.55-16,.26-.26.53-.35.88-.35.79,0,1.41.62,1.41,1.41,0,.44-.18.79-.53,1.14-10.81,8.7-26.54,16.61-33.31,16.61-2.72,0-5.89-1.58-5.89-5.36ZM67.39,99.8c.09-.18.09-.26.09-.44,0-.44-.26-.53-1.58-.53-4.66,0-11.34,5.27-16.35,12.31,8-2.55,16.35-7.38,17.84-11.34Z"/><path class="cls-1" d="M70.64,125.2c-.26-.7.62-1.32,1.14-1.85l.79-.88c3.08-7.38,4.75-11.25,8.26-19.25l2.2-5.1c.26-.53.7-.88,1.32-.88.79,0,1.41.62,1.41,1.41,0,.18-.09.44-.09.62l-2.29,5.1c-2.28,5.19-3.78,8.61-5.36,12.48,14.41-14.94,22.15-21.18,27.07-21.18,2.02,0,3.25,1.14,3.25,2.99,0,2.64-2.9,7.38-6.42,13.18-2.81,4.57-4.83,8.09-5.01,9.76,2.81-.26,9.4-5.01,23.47-15.56.26-.18.53-.26.88-.26.79,0,1.41.62,1.41,1.41,0,.44-.26.88-.61,1.14-14.41,10.81-21.53,16.08-25.4,16.08-1.58,0-2.64-1.06-2.64-2.55,0-2.28,2.55-6.5,5.45-11.43,3.52-5.8,6.06-9.93,6.06-11.78q0-.18-.44-.18c-4.22,0-12.48,7.03-30.06,25.58l-.44.97c-.26.62-.18,1.41-.7,1.67-.97.44-2.9-.18-3.25-1.49Z"/><path class="cls-1" d="M114.5,122.12c0-3.78,5.71-15.91,13.45-31.82-8.35-.44-17.84-.88-25.84-.88-7.21,0-13.09.35-16.17,1.32-.09.09-.26.09-.44.09-.79,0-1.41-.62-1.41-1.41,0-.62.44-1.14.97-1.32,3.43-1.14,9.76-1.49,17.05-1.49,8.53,0,18.55.53,27.16.97l1.67-3.43,2.11-4.48c.26-.44.79-.79,1.32-.79.79,0,1.41.62,1.41,1.41,0,.26-.09.44-.18.62l-2.11,4.48-1.14,2.29c5.63.26,44.22-.13,47.38-.13,1.49,0,2.46,0,3.08-.18h.26c.79,0,1.41.62,1.41,1.41,0,.7-.53,1.23-1.14,1.41-.79.09-2.02.18-3.6.18-3.43,0-42.55.4-48.7.13-7.47,15.47-13.01,27.16-13.62,31.03,3.6-.79,10.9-5.71,25.49-15.47.26-.18.53-.26.79-.26.79,0,1.41.62,1.41,1.41,0,.53-.26.88-.62,1.14-16,10.81-23.82,16-27.95,16.08-1.14,0-2.02-.88-2.02-2.28Z"/><path class="cls-1" d="M139.1,116.14c0-1.76.44-3.95,1.32-6.06,2.9-6.5,8.53-10.63,14.94-10.63.79,0,1.41.62,1.41,1.41s-.62,1.41-1.41,1.41c-5.36,0-9.84,3.25-12.3,8.88-.79,1.85-1.14,3.52-1.14,5.01,0,3.87,1.85,5.98,5.54,5.98,5.54,0,12.04-5.63,15.56-12.31,1.41-2.64,2.02-4.75,2.02-6.59,0-3.69-2.28-5.63-7.73-5.63-.79,0-1.49.09-2.37.18h-.18c-.79,0-1.41-.62-1.41-1.41,0-.7.53-1.32,1.32-1.41.88-.09,1.76-.18,2.64-.18,6.59,0,10.55,3.16,10.55,8.44,0,2.28-.79,5.01-2.37,8-3.78,7.12-11.34,13.71-18.02,13.71-5.19,0-8.35-3.69-8.35-8.79Z"/><path class="cls-1" d="M181.42,87.58l1.67-3.43,2.11-4.48c.26-.44.79-.79,1.32-.79.79,0,1.41.62,1.41,1.41,0,.26-.09.44-.18.62l-2.11,4.48-1.14,2.29c5.63.26,10.46.53,13.62.53,1.49,0,2.46,0,3.08-.18h.26c.79,0,1.41.62,1.41,1.41,0,.7-.53,1.23-1.14,1.41-.79.09-2.02.18-3.6.18-3.43,0-8.79-.26-14.94-.53-7.47,15.47-13.01,27.16-13.62,31.03,3.6-.79,10.9-5.71,25.49-15.47.26-.18.53-.26.79-.26.79,0,1.41.62,1.41,1.41,0,.53-.26.88-.61,1.14-16,10.81-23.82,16-27.95,16.08-1.14,0-2.02-.88-2.02-2.28,0-3.78,5.71-15.91,13.45-31.82"/><path class="cls-1" d="M189.51,118.87c0-12.92,14.06-21.97,27.42-22.76h.18c.79-.09,1.41.62,1.41,1.41,0,.7-.53,1.32-1.23,1.41-12.57,1.58-24.96,8.79-24.96,19.95,0,2.72,1.14,4.13,3.25,4.13,2.46,0,13.62-7.91,21.18-16.08l1.14-2.37c.35-.7.79-1.06,1.49-1.06,3.16,0,3.43.79,1.32,3.16l-1.58,1.84c-.79,1.49-1.49,2.9-2.2,4.22-2.37,4.57-4.31,8.17-4.31,9.84,4.31-.18,13.36-7.21,24.17-16.52.18-.26.53-.35.88-.35.79,0,1.41.62,1.41,1.41,0,.44-.18.79-.53,1.06-10.99,9.49-20.65,17.14-26.02,17.23-1.76,0-2.72-1.14-2.72-2.72,0-1.84,1.23-4.66,2.9-7.91-6.94,6.15-14.41,11.07-17.14,11.07-3.6,0-6.06-2.99-6.06-6.94ZM211.48,91.1c0-.26.09-.44.18-.62l3.52-7.47c.26-.44.79-.79,1.32-.79.79,0,1.41.62,1.41,1.41,0,.26-.09.44-.18.62l-3.52,7.47c-.26.44-.79.79-1.32.79-.79,0-1.41-.62-1.41-1.41ZM225.89,92.06c0-.26.09-.44.18-.62l3.95-8.53c.26-.44.7-.79,1.32-.79.79,0,1.41.62,1.41,1.41,0,.26-.09.44-.18.62l-3.96,8.53c-.26.44-.7.79-1.32.79-.79,0-1.41-.62-1.41-1.41Z"/><path class="cls-1" d="M228.26,125.46l-.09-.18c-.26-.7-.09-1.32.35-1.93l1.49-1.84,19.98-42.76c.26-.53.7-.88,1.32-.88.79,0,1.41.62,1.41,1.41,0,.18-.09.44-.09.62l-16.11,33.53c13.53-15.82,19.51-17.75,23.82-17.75,1.67,0,3.08,1.23,3.08,3.69,0,2.28-1.14,6.15-4.57,12.48l-1.49,2.64c-1.85,3.43-3.25,5.8-3.43,7.12,2.9-.35,9.49-5.1,23.38-15.56.26-.18.53-.26.88-.26.79,0,1.41.62,1.41,1.41,0,.44-.26.88-.61,1.14-14.41,10.81-21.53,16.08-25.4,16.08-1.58,0-2.55-.97-2.55-2.46,0-1.84,1.76-5.01,3.87-8.79l1.49-2.72c3.25-5.98,4.22-9.23,4.22-11.07q0-.88-.26-.88c-4.22,0-10.55,2.2-27.95,24.43l-1.23,2.99c-.35.79-.88,1.05-1.58.88-.7-.26-1.14-.62-1.32-1.32Z"/><path class="cls-1" d="M270.97,121.86c0-2.72,3.08-9.23,9.14-21.8h-4.13c-.79,0-1.41-.62-1.41-1.41s.61-1.41,1.41-1.41h5.54l.7-1.49,1.93-4.04c.26-.44.79-.79,1.32-.79.79,0,1.41.62,1.41,1.41,0,.26-.09.44-.18.62l-1.93,4.04-.09.26c3.87-.09,7.56-.26,10.99-.97h.26c.79,0,1.41.62,1.41,1.41,0,.7-.53,1.23-1.14,1.41-4.04.7-8.53.88-12.92.97-6.15,12.74-9.23,19.07-9.41,21.53,3.34-.53,10.72-5.27,25.93-15.56.26-.18.53-.26.79-.26.79,0,1.41.62,1.41,1.41,0,.53-.26.88-.61,1.14-16,10.81-23.82,16-27.95,16.08-1.41,0-2.46-.97-2.46-2.55Z"/><path class="cls-1" d="M293.29,121.77c0-2.72,2.99-8.97,8.7-20.92l1.32-2.81c.26-.44.79-.79,1.32-.79.79,0,1.41.62,1.41,1.41,0,.26-.09.44-.18.62l-1.32,2.81c-5.54,11.51-8.26,17.32-8.44,19.51,2.99-.35,9.58-5.19,23.38-15.56.26-.18.53-.26.88-.26.79,0,1.41.62,1.41,1.41,0,.44-.26.88-.62,1.14-14.33,10.72-21.45,16-25.31,16.08-1.49.09-2.55-.97-2.55-2.64ZM306.22,91.54c0-.26.09-.44.18-.62l4.48-8.97c.18-.44.7-.79,1.23-.79.79,0,1.41.62,1.41,1.41,0,.26-.09.44-.18.62l-4.48,8.97c-.18.44-.7.79-1.23.79-.79,0-1.41-.62-1.41-1.41Z"/><path class="cls-1" d="M34.23,178.97c-2.41-.3-3.3-1.75-3.3-3.87-.03-4.43,5.44-15.34,5.44-17.89,0-.24-.03-.45-.09-.62-.09-.24.09-.36.36-.36.65,0,1.93.71,1.93,2.35,0,.8-.36,1.46-1.19,3.15-1.72,3.48-4.19,10.85-4.13,14.21,0,.65.15,1.1.45,1.28.18.12.42.18.65.18,2.65,0,6.18-4.73,7.91-6.75,1.28-1.54.68,1.52-2.35,5.17-1.04,1.25-3.24,3.18-5.17,3.18-.18,0-.33,0-.5-.03Z"/><path class="cls-1" d="M41.78,171.6c.3-1.16,1.63-5.62,2.32-5.88.5-.18,1.81.71,1.81,1.63,0,.65-.71,1.28-2.14,4.79-.27.83-.92,2.68-.39,2.56.15-.03.89-1.01,3.33-3.69.51-.62,1.19-1.52,1.72-2.14.39-.45,1.1-1.84,1.66-1.93.48-.06,1.1.45,1.31.83.33.62.18.74-.06,1.46-.62,1.66-1.78,5.47-.56,5.47,1.37,0,3.75-1.54,4.16-1.72.95-.62-1.54,3.15-3.6,3.33-1.66.15-3.36-1.22-2.65-4.79-1.84,1.93-4.31,5.47-5.65,5.32-2.47-.42-1.72-3.6-1.28-5.23Z"/><path class="cls-1" d="M55.75,175.64c-1.07-.36-1.43-1.22-1.43-2.2,0-1.34.62-2.91,1.13-3.8.48-.83,1.81-3.71,2.85-3.87.45-.03,1.25.6,1.46.98.15.33.18.47.18.56v.06c0,.09.03.15.36.42.95.8,1.99,1.07,1.99,2.35,0,.15,0,.27-.03.42-.18,1.31-1.04,2.11-1.84,3.03-.95,1.07-2.14,2.35-3.51,2.35-.39,0-.77-.09-1.16-.3ZM60.51,169.76c0-.15-.06-.27-.18-.39,0,.03-1.28-.42-1.78-.12-1.13.65-1.72,2.47-2.02,3.27-.18.48-.36,1.07-.36,1.34,0,.24.09.36.24.36.83,0,4.1-3.51,4.1-4.46Z"/><path class="cls-1" d="M69.99,175.08c-.53-.83-.59-2.73.09-5.11-.51.33-2.53,2.56-2.71,2.71-.65.65-1.69,1.75-2.14,2.32-.39.54-.86,1.22-1.43,1.22-.24,0-.5-.15-.8-.5-.24-.33-.39-.54-.39-.92,0-.68.95-3.21,2.23-8.06.27-1.07.54-1.01,1.34-.59.92.48.86.8.74,1.34-.15.33-.83,2.5-1.54,4.31,1.16-1.19,1.49-1.49,2.82-2.79.62-.62,2.02-1.63,2.68-1.63.48,0,1.37.65,1.37,1.25s-.24,1.28-.36,1.84c-.12.51-.39,1.61-.39,2.59s.12,1.93,1.04,1.93c.83,0,1.93-.86,2.53-1.22.15-.09.62-.45,1.1-.65.27-.12-.09.92-.77,1.61-.83.86-1.4,1.31-2.26,1.52-.24.06-.51.09-.77.09-.68,0-1.81-.36-2.38-1.22Z"/><path class="cls-1" d="M74.69,175.55c-.15-.24-.18-.62-.15-1.07.09-1.43.68-3.63,1.37-5.32-.15-.03-.48.03-.71.03-.54,0-.65-.24-.65-.71,0-1.19.5-.92,2.02-1.22.39-.95.5-1.31,1.01-2.53l1.34-3.15c.24-.62.83-1.99,1.16-2.14.09-.03.18-.06.27-.06.68,0,1.43.86,1.28,1.28-.39.98-1.16,2.73-1.58,3.71-.24.51-.71,1.66-1.16,2.79.59,0,1.07-.09,1.69-.12.92-.03,1.52-.12,2.35-.12,1.1,0-.86,1.52-2.38,1.78-.86.15-1.63.24-2.41.39-.24.42-.92,2.38-1.28,3.54-.15.71-.45,1.63-.5,2.47-.03.3.06.56.06.8-.06.27-.39.42-.71.39-.36-.03-.77-.24-1.01-.74Z"/><path class="cls-1" d="M81.47,175.64c-1.07-.36-1.43-1.22-1.43-2.2,0-1.34.62-2.91,1.13-3.8.48-.83,1.81-3.71,2.85-3.87.45-.03,1.25.6,1.46.98.15.33.18.47.18.56v.06c0,.09.03.15.36.42.95.8,1.99,1.07,1.99,2.35,0,.15,0,.27-.03.42-.18,1.31-1.04,2.11-1.84,3.03-.95,1.07-2.14,2.35-3.51,2.35-.39,0-.77-.09-1.16-.3ZM86.22,169.76c0-.15-.06-.27-.18-.39,0,.03-1.28-.42-1.78-.12-1.13.65-1.72,2.47-2.02,3.27-.18.48-.36,1.07-.36,1.34,0,.24.09.36.24.36.83,0,4.1-3.51,4.1-4.46Z"/><path class="cls-1" d="M89.7,178.38c.09-.24.24-.39.45-.71.12-.15.33-.45.62-.95.62-.95.39-1.46.5-2.17.12-.68.48-1.13,1.19-1.31.74-.18,1.07.15,1.28.65.48,1.16-.18,2.35-.77,3.36-.24.39-.86,1.07-1.43,1.49-.24.18-.56.39-.95.42-.56.09-.98-.18-.89-.77Z"/><path class="cls-1" d="M104.89,175.97c-.89-.53-1.22-1.37-1.34-2.35-.51.36-1.01.68-1.52.95-.74.42-2.05-.15-1.22-.62.95-.57,1.84-1.25,2.68-1.93.06-1.66.59-3.51,1.1-5.11.45-1.46,1.07-3.03,1.72-4.46.74-1.63,1.37-2.73,2.35-4.16.5-.74.92-1.34,1.87-1.66.15-.06.33-.06.51-.06.98,0,2.17.62,2.17,1.75,0,4.64-3.8,10.28-7.82,13.82l.03.86c.03.09-.12,1.54.65,2.05.77.5,2.41-.18,3.36-.98.98-.83,1.19-1.25,1.31-.83.09.33-.39,1.43-.92,1.96-.74.71-1.75,1.4-2.71,1.4-.62,0-1.34-.09-2.23-.62ZM105.84,169.82c1.75-1.84,3.06-3.62,3.72-4.7,1.13-1.87,2.17-4.88,2.26-6.21.03-.51,0-.71-.15-.71-.71,0-3.36,5.26-4.73,8.56-.39.89-.77,1.93-1.1,3.06Z"/><path class="cls-1" d="M110.42,171.93c.3-1.49.98-3.27,1.22-3.87.39-.95.65-1.01,1.28-.83,1.04.24,1.1.62.89,1.04-1.19,2.5-1.61,4.16-1.61,5.38,0,.18,0,.74.42.98,1.37.77,3.98-1.46,4.46-1.67.95-.62-1.55,3.15-3.6,3.33-1.66.15-3.75-.98-3.06-4.37ZM113.6,164.79c-.12-.21-.18-.59-.18-1.1,0-.68.39-2.38,1.25-2.38.27,0,.56.15.92.5.21.21.27.51.27.89,0,.71-.95,2.5-1.72,2.5-.18,0-.39-.12-.54-.42Z"/><path class="cls-1" d="M116.75,171.93c.3-1.49.98-3.27,1.22-3.87.39-.95.65-1.01,1.28-.83,1.04.24,1.1.62.89,1.04-1.19,2.5-1.61,4.16-1.61,5.38,0,.18,0,.74.42.98,1.37.77,3.98-1.46,4.46-1.67.95-.62-1.55,3.15-3.6,3.33-1.66.15-3.75-.98-3.06-4.37ZM119.94,164.79c-.12-.21-.18-.59-.18-1.1,0-.68.39-2.38,1.25-2.38.27,0,.56.15.92.5.21.21.27.51.27.89,0,.71-.95,2.5-1.72,2.5-.18,0-.39-.12-.54-.42Z"/><path class="cls-1" d="M122.7,174.37c-.06-.48.54-2.23.77-3,.27-.98.48-1.96.8-2.91.68-1.93,1.34-3.86,2.02-5.83.42-1.16.74-2.32,1.1-3.51.21-.83.92-3,1.4-3.39.51-.45,1.72.45,1.75.83.03.71-.65,2.02-.89,2.73-.27.74-.48,1.52-.74,2.26-.54,1.61-.98,3.27-1.61,4.79-.27.65-.56,1.34-.77,1.99-.06.15-.03.42-.71,2.47-.48,1.55-1.28,5.02-1.84,4.99-.54-.03-1.22-.98-1.28-1.43ZM127.28,172.76c-.33-.36-.98-1.34-1.01-1.84-.06-1.19,1.37-2.08,2.14-2.76.89-.8,1.75-1.63,2.56-2.5.54-.57.83-1.16,1.69-.83.42.15.92.71.95,1.19.03.8-1.99,2.29-2.59,2.85-.62.6-1.99,1.93-2.91,2.56.42.92,1.84,2.02,2.85,2.02,1.37,0,2.38-.68,3.6-2.44.18-.21.45,1.37-.06,2.35-.59,1.13-1.37,1.61-2.29,1.81-1.87.38-3.57-.92-4.93-2.41Z"/><path class="cls-1" d="M133.64,171.6c.3-1.16,1.64-5.62,2.32-5.88.5-.18,1.81.71,1.81,1.63,0,.65-.71,1.28-2.14,4.79-.27.83-.92,2.68-.39,2.56.15-.03.89-1.01,3.33-3.69.51-.62,1.19-1.52,1.72-2.14.39-.45,1.1-1.84,1.67-1.93.48-.06,1.1.45,1.31.83.33.62.18.74-.06,1.46-.62,1.66-1.78,5.47-.56,5.47,1.37,0,3.75-1.54,4.16-1.72.95-.62-1.54,3.15-3.6,3.33-1.66.15-3.36-1.22-2.65-4.79-1.84,1.93-4.31,5.47-5.65,5.32-2.47-.42-1.72-3.6-1.28-5.23Z"/><path class="cls-1" d="M153.14,175.08c-.53-.83-.59-2.73.09-5.11-.51.33-2.53,2.56-2.71,2.71-.65.65-1.69,1.75-2.14,2.32-.39.54-.86,1.22-1.43,1.22-.24,0-.5-.15-.8-.5-.24-.33-.39-.54-.39-.92,0-.68.95-3.21,2.23-8.06.27-1.07.54-1.01,1.34-.59.92.48.86.8.74,1.34-.15.33-.83,2.5-1.54,4.31,1.16-1.19,1.49-1.49,2.82-2.79.62-.62,2.02-1.63,2.68-1.63.48,0,1.37.65,1.37,1.25s-.24,1.28-.36,1.84c-.12.51-.39,1.61-.39,2.59s.12,1.93,1.04,1.93c.83,0,1.93-.86,2.53-1.22.15-.09.62-.45,1.1-.65.27-.12-.09.92-.77,1.61-.83.86-1.4,1.31-2.26,1.52-.24.06-.51.09-.77.09-.68,0-1.81-.36-2.38-1.22Z"/><path class="cls-1" d="M157.84,175.55c-.15-.24-.18-.62-.15-1.07.09-1.43.68-3.63,1.37-5.32-.15-.03-.48.03-.71.03-.54,0-.65-.24-.65-.71,0-1.19.5-.92,2.02-1.22.39-.95.5-1.31,1.01-2.53l1.34-3.15c.24-.62.83-1.99,1.16-2.14.09-.03.18-.06.27-.06.68,0,1.43.86,1.28,1.28-.39.98-1.16,2.73-1.58,3.71-.24.51-.71,1.66-1.16,2.79.59,0,1.07-.09,1.69-.12.92-.03,1.52-.12,2.35-.12,1.1,0-.86,1.52-2.38,1.78-.86.15-1.63.24-2.41.39-.24.42-.92,2.38-1.28,3.54-.15.71-.45,1.63-.5,2.47-.03.3.06.56.06.8-.06.27-.39.42-.71.39-.36-.03-.77-.24-1.01-.74Z"/><path class="cls-1" d="M168.99,173.18c-1.87,2.02-3.36,2.73-4.4,2.64-3.21-.36-1.55-4.64.89-7.25,1.43-1.58,3.51-2.71,5.14-1.58.36-.56,1.1-.18,1.4,0,.57.27.86.71.65,1.1-.8,1.46-1.9,4.19-1.9,5.86,0,.65.21,1.16.98,1.1,1.49-.12,3.42-1.84,3.83-2.05.89-.71-1.31,3.36-3.36,3.57-1.72.18-3.06-1.16-3.24-3.39ZM169.7,168.63c-.83-.77-3.77,2.11-4.99,5.2-.59,1.93,4.99-3.54,4.99-5.2Z"/><path class="cls-1" d="M173.48,181.56c.39,1.28,1.01,2.88,1.54,3.42,1.52,1.52,3.54-2.32,4.07-3.42,1.75-3.63,3.6-10.11,4.73-14.03.27-.92,1.34-.45,1.96-.3.62.15-.51,3.12-.8,4.31-.8,3.24-1.75,5.62-3,8.8-.92,2.32-3.51,7.64-7.1,6.48-1.58-.5-2.47-2.79-1.4-5.26ZM185.37,160.9c.33-1.04.8-1.13,1.72-.21.83.83.06,2.11-.39,2.94-.33.59-1.04,1.57-1.6.54-.51-.92-.03-2.32.27-3.27Z"/><path class="cls-1" d="M192.68,173.18c-1.87,2.02-3.36,2.73-4.4,2.64-3.21-.36-1.55-4.64.89-7.25,1.43-1.58,3.51-2.71,5.14-1.58.36-.56,1.1-.18,1.4,0,.57.27.86.71.65,1.1-.8,1.46-1.9,4.19-1.9,5.86,0,.65.21,1.16.98,1.1,1.49-.12,3.42-1.84,3.83-2.05.89-.71-1.31,3.36-3.36,3.57-1.72.18-3.06-1.16-3.24-3.39ZM193.4,168.63c-.83-.77-3.77,2.11-4.99,5.2-.59,1.93,4.99-3.54,4.99-5.2Z"/><path class="cls-1" d="M205.85,176.21c-.71-.15-1.01-.09-1.01-1.69,0-1.01,2.62-8.68,5.05-15.49.27-.8.95-2.77,1.4-2.77.21,0,.48.21.74.39.39.27.54.68.54,1.16,0,.45-.83,2.82-1.22,3.57-.45.95-.86,2.11-1.22,3.3-.09.3-1.22,3.42-2.59,7.28,1.1-1.19,1.67-1.66,3.42-3.03.15-.12.62-.42.86-.42.83,0,2.02.74,1.99,1.6-.06,1.58-.56,3.06-.56,3.89,0,.56.24.62.65.62.21,0,.48-.06.8-.18.83-.3,1.6-.77,2.62-1.19-.42,1.4-2.5,2.79-3.83,2.79-.74,0-2.17-.8-2.17-2.2,0-.92.21-2.2.54-3.33-2.11,1.87-3,3.3-4.07,4.49-.65.8-.74,1.22-1.52,1.22-.12,0-.27,0-.42-.03Z"/><path class="cls-1" d="M216.26,185.6c0-.06-.03-.21-.03-.36,0-.18.03-.39.06-.51.15-.3.27-.42.36-.42.15,0,.27.24.51.54.39.42.56.83,1.04.71s1.16-1.37,1.4-1.75c.74-1.25,1.34-2.59,1.96-3.92.74-1.57,1.01-2.38,1.63-4.01.24-.56,1.6-4.61,1.72-6.06-1.04,1.37-2.32,2.62-4.25,4.25-.8.69-1.72,1.25-2.14,1.25-1.19,0-1.84-1.1-1.84-2.56,0-.42.06-.89.18-1.37.18-.77.86-3.98,1.75-4.16.24-.06.89.33,1.1.48.42.33.56.5.56.68,0,.09-.03.18-.09.3-.45.95-.62,1.37-.8,1.81-.36.86-.59,1.87-.59,2.26,0,.86,3.8-3.09,4.61-3.89.68-.68,1.4-1.66,2.23-2.17.21-.12.45-.18.71-.18.68,0,1.4.42,1.37,1.22,0,.68-.5,1.19-.68,2.35-.5,3.24-5.5,17.57-8.29,17.57-1.16.12-2.29-.86-2.47-2.05Z"/><path class="cls-1" d="M230.26,176c-.42-.86-.48-3.75-.54-5.14-.03-1.25-.15-2.47-.27-3.71-.03-.24-.03-.42-.03-.6,0-.33.09-.47.42-.47.12,0,.24,0,.42.03,1.31.18,1.49.39,1.49,2.02v2.11c0,.98,0,1.93.06,2.94,1.04-1.72,3.45-5.86,3.89-6.48.36-.47.71-1.04,1.16-1.04s.98.71.98.98c0,.33-.36.54-.62.98-.33.56-2.08,3.95-2.38,4.64-.5,1.07-2.29,4.58-3.33,4.58-.24,0-.98-.27-1.25-.83Z"/><path class="cls-1" d="M238.2,171.93c.3-1.49.98-3.27,1.22-3.87.39-.95.65-1.01,1.28-.83,1.04.24,1.1.62.89,1.04-1.19,2.5-1.61,4.16-1.61,5.38,0,.18,0,.74.42.98,1.37.77,3.98-1.46,4.46-1.67.95-.62-1.55,3.15-3.6,3.33-1.66.15-3.75-.98-3.06-4.37ZM241.38,164.79c-.12-.21-.18-.59-.18-1.1,0-.68.39-2.38,1.25-2.38.27,0,.56.15.92.5.21.21.27.51.27.89,0,.71-.95,2.5-1.72,2.5-.18,0-.39-.12-.54-.42Z"/><path class="cls-1" d="M251.49,175.08c-.53-.83-.59-2.73.09-5.11-.51.33-2.53,2.56-2.71,2.71-.65.65-1.69,1.75-2.14,2.32-.39.54-.86,1.22-1.43,1.22-.24,0-.5-.15-.8-.5-.24-.33-.39-.54-.39-.92,0-.68.95-3.21,2.23-8.06.27-1.07.54-1.01,1.34-.59.92.48.86.8.74,1.34-.15.33-.83,2.5-1.54,4.31,1.16-1.19,1.49-1.49,2.82-2.79.62-.62,2.02-1.63,2.68-1.63.48,0,1.37.65,1.37,1.25s-.24,1.28-.36,1.84c-.12.51-.39,1.61-.39,2.59s.12,1.93,1.04,1.93c.83,0,1.93-.86,2.53-1.22.15-.09.62-.45,1.1-.65.27-.12-.09.92-.77,1.61-.83.86-1.4,1.31-2.26,1.52-.24.06-.51.09-.77.09-.68,0-1.81-.36-2.38-1.22Z"/><path class="cls-1" d="M258.47,176c-.42-.86-.48-3.75-.54-5.14-.03-1.25-.15-2.47-.27-3.71-.03-.24-.03-.42-.03-.6,0-.33.09-.47.42-.47.12,0,.24,0,.42.03,1.31.18,1.49.39,1.49,2.02v2.11c0,.98,0,1.93.06,2.94,1.04-1.72,3.45-5.86,3.89-6.48.36-.47.71-1.04,1.16-1.04s.98.71.98.98c0,.33-.36.54-.62.98-.33.56-2.08,3.95-2.38,4.64-.5,1.07-2.29,4.58-3.33,4.58-.24,0-.98-.27-1.25-.83Z"/><path class="cls-1" d="M267.84,175.64c-1.07-.36-1.43-1.22-1.43-2.2,0-1.34.62-2.91,1.13-3.8.48-.83,1.81-3.71,2.85-3.87.45-.03,1.25.6,1.46.98.15.33.18.47.18.56v.06c0,.09.03.15.36.42.95.8,1.99,1.07,1.99,2.35,0,.15,0,.27-.03.42-.18,1.31-1.04,2.11-1.84,3.03-.95,1.07-2.14,2.35-3.51,2.35-.39,0-.77-.09-1.16-.3ZM272.59,169.76c0-.15-.06-.27-.18-.39,0,.03-1.28-.42-1.78-.12-1.13.65-1.72,2.47-2.02,3.27-.18.48-.36,1.07-.36,1.34,0,.24.09.36.24.36.83,0,4.1-3.51,4.1-4.46Z"/><path class="cls-1" d="M275.12,171.93c.3-1.49.98-3.27,1.22-3.87.39-.95.65-1.01,1.28-.83,1.04.24,1.1.62.89,1.04-1.19,2.5-1.61,4.16-1.61,5.38,0,.18,0,.74.42.98,1.37.77,3.98-1.46,4.46-1.67.95-.62-1.55,3.15-3.6,3.33-1.66.15-3.75-.98-3.06-4.37ZM278.3,164.79c-.12-.21-.18-.59-.18-1.1,0-.68.39-2.38,1.25-2.38.27,0,.56.15.92.5.21.21.27.51.27.89,0,.71-.95,2.5-1.72,2.5-.18,0-.39-.12-.54-.42Z"/><path class="cls-1" d="M288.41,175.08c-.53-.83-.59-2.73.09-5.11-.51.33-2.53,2.56-2.71,2.71-.65.65-1.69,1.75-2.14,2.32-.39.54-.86,1.22-1.43,1.22-.24,0-.5-.15-.8-.5-.24-.33-.39-.54-.39-.92,0-.68.95-3.21,2.23-8.06.27-1.07.54-1.01,1.34-.59.92.48.86.8.74,1.34-.15.33-.83,2.5-1.54,4.31,1.16-1.19,1.49-1.49,2.82-2.79.62-.62,2.02-1.63,2.68-1.63.48,0,1.37.65,1.37,1.25s-.24,1.28-.36,1.84c-.12.51-.39,1.61-.39,2.59s.12,1.93,1.04,1.93c.83,0,1.93-.86,2.53-1.22.15-.09.62-.45,1.1-.65.27-.12-.09.92-.77,1.61-.83.86-1.4,1.31-2.26,1.52-.24.06-.51.09-.77.09-.68,0-1.81-.36-2.38-1.22Z"/><path class="cls-1" d="M293.11,175.55c-.15-.24-.18-.62-.15-1.07.09-1.43.68-3.63,1.37-5.32-.15-.03-.48.03-.71.03-.54,0-.65-.24-.65-.71,0-1.19.5-.92,2.02-1.22.39-.95.5-1.31,1.01-2.53l1.34-3.15c.24-.62.83-1.99,1.16-2.14.09-.03.18-.06.27-.06.68,0,1.43.86,1.28,1.28-.39.98-1.16,2.73-1.58,3.71-.24.51-.71,1.66-1.16,2.79.59,0,1.07-.09,1.69-.12.92-.03,1.52-.12,2.35-.12,1.1,0-.86,1.52-2.38,1.78-.86.15-1.63.24-2.41.39-.24.42-.92,2.38-1.28,3.54-.15.71-.45,1.63-.5,2.47-.03.3.06.56.06.8-.06.27-.39.42-.71.39-.36-.03-.77-.24-1.01-.74Z"/><path class="cls-1" d="M299.35,171.93c.3-1.49.98-3.27,1.22-3.87.39-.95.65-1.01,1.28-.83,1.04.24,1.1.62.89,1.04-1.19,2.5-1.61,4.16-1.61,5.38,0,.18,0,.74.42.98,1.37.77,3.98-1.46,4.46-1.67.95-.62-1.55,3.15-3.6,3.33-1.66.15-3.75-.98-3.06-4.37ZM302.53,164.79c-.12-.21-.18-.59-.18-1.1,0-.68.39-2.38,1.25-2.38.27,0,.56.15.92.5.21.21.27.51.27.89,0,.71-.95,2.5-1.72,2.5-.18,0-.39-.12-.54-.42Z"/></g></svg>