<?xml version="1.0" encoding="UTF-8"?><svg id="Layer_2" xmlns="http://www.w3.org/2000/svg" viewBox="0 0 59.58 62.88"><defs><style>.cls-1{fill:#fff;}</style></defs><g id="Layer_1-2"><path class="cls-1" d="M48.75,37.51c4.72,8.6,8.34,17.22,10.83,25.37-6.43-6.24-14.77-12.42-24.47-17.87,1.09-1.65,2.16-3.37,3.19-5.15.89-1.54,1.72-3.08,2.5-4.62-2.51,3.17-5.13,6.06-7.78,8.62-7.68,7.42-15.64,12.13-22.14,13.09,2.53-6.15,4.61-13.09,6.05-20.55-5.85-2.27-11.55-4.01-16.92-5.2,5.84-1.72,12.11-4.02,18.6-6.85.75-8.73.39-16.85-.92-23.74-.04-.2-.08-.41-.12-.61.14.1.29.2.43.31,5.53,4.02,11.2,9.49,16.64,16.12,5.11-2.81,9.93-5.75,14.38-8.74,2.98-2.01,5.8-4.03,8.43-6.06-1.64,8.57-6.07,18.75-12.93,28.62,1.46,2.34,2.88,4.76,4.25,7.25Z"/></g></svg>