<?xml version="1.0" encoding="UTF-8"?><svg id="Layer_2" xmlns="http://www.w3.org/2000/svg" viewBox="0 0 321.77 143.19"><defs><style>.cls-1{fill:#fefadf;}</style></defs><g id="Layer_1-2"><path class="cls-1" d="M255.43,37.51c4.72,8.6,8.34,17.22,10.83,25.37-6.43-6.24-14.77-12.42-24.47-17.87,1.09-1.65,2.16-3.37,3.19-5.15.89-1.54,1.72-3.08,2.5-4.62-2.51,3.17-5.13,6.06-7.78,8.62-7.68,7.42-15.64,12.13-22.14,13.09,2.53-6.15,4.61-13.09,6.05-20.55-5.85-2.27-11.55-4.01-16.92-5.2,5.84-1.72,12.11-4.02,18.6-6.85.75-8.73.39-16.85-.92-23.74-.04-.2-.08-.41-.12-.61.14.1.29.2.43.31,5.53,4.02,11.2,9.49,16.64,16.12,5.11-2.81,9.93-5.75,14.38-8.74,2.98-2.01,5.8-4.03,8.43-6.06-1.64,8.57-6.07,18.75-12.93,28.62,1.46,2.34,2.88,4.76,4.25,7.25Z"/><path class="cls-1" d="M218.54.96c-46.99,8.96-91.88,26.74-132.3,52.31C123.99,23.65,170.74,5.17,218.54.96h0Z"/><path class="cls-1" d="M200.82,31.14c-38.56,4.56-76.12,14.54-111.93,29.52,33.79-19.37,72.98-29.74,111.93-29.52h0Z"/><path class="cls-1" d="M216.05,51.17c-41.99-5.95-85.76-.2-124.49,16.94,39.74-13.53,81.98-18.4,123.56-14.42.32-.83.63-1.67.93-2.52Z"/><path class="cls-1" d="M230.36,55.55c8.31,1.23,16.57,2.82,24.77,4.77-7.4-2.47-14.94-4.51-22.56-6.18-.74.5-1.47.97-2.2,1.41Z"/><path class="cls-1" d="M29.96,129.57l-2.64-.61c-5.19,10.9-7.56,14.24-9.49,14.24-3.69,0-21.01-19.6-17.32-22.15,1.49-1.05,11.78,1.32,25.22,4.57,4.75-10.2,12.22-27.07,24.08-54.23.26-.53.7-.88,1.32-.88.79,0,1.41.62,1.41,1.41,0,.18-.09.44-.09.62-11.51,26.19-18.9,43.07-23.91,53.79l2.11.53c25.58,6.42,66.79,8.75,91.49,11.48.7.09,1.23.7,1.23,1.41,0,.79-.62,1.49-1.41,1.41-25.22-2.02-66.35-5.59-92.01-11.57ZM24.59,128.25c-12.83-3.08-21.01-5.1-21.27-4.92-.79.53,12.39,17.05,14.5,17.05.7,0,2.28-2.64,6.77-12.13Z"/><path class="cls-1" d="M42.35,119.57c0-1.49.53-3.34,1.76-5.45,5.54-9.49,14.94-18.11,21.8-18.11,2.55,0,4.4,1.23,4.4,3.34,0,.35-.09.97-.26,1.49-1.85,4.92-11.25,10.28-19.69,12.92l-.44.09c-.79,0-1.41-.62-1.41-1.41-.7.97-1.32,2.02-1.93,3.08-1.06,1.76-1.41,2.99-1.41,4.04,0,1.93,1.23,2.55,3.08,2.55,5.98,0,21.01-7.47,31.55-16,.26-.26.53-.35.88-.35.79,0,1.41.62,1.41,1.41,0,.44-.18.79-.53,1.14-10.81,8.7-26.54,16.61-33.31,16.61-2.72,0-5.89-1.58-5.89-5.36ZM67.39,99.8c.09-.18.09-.26.09-.44,0-.44-.26-.53-1.58-.53-4.66,0-11.34,5.27-16.35,12.31,8-2.55,16.35-7.38,17.84-11.34Z"/><path class="cls-1" d="M70.64,125.2c-.26-.7.62-1.32,1.14-1.85l.79-.88c3.08-7.38,4.75-11.25,8.26-19.25l2.2-5.1c.26-.53.7-.88,1.32-.88.79,0,1.41.62,1.41,1.41,0,.18-.09.44-.09.62l-2.29,5.1c-2.28,5.19-3.78,8.61-5.36,12.48,14.41-14.94,22.15-21.18,27.07-21.18,2.02,0,3.25,1.14,3.25,2.99,0,2.64-2.9,7.38-6.42,13.18-2.81,4.57-4.83,8.09-5.01,9.76,2.81-.26,9.4-5.01,23.47-15.56.26-.18.53-.26.88-.26.79,0,1.41.62,1.41,1.41,0,.44-.26.88-.61,1.14-14.41,10.81-21.53,16.08-25.4,16.08-1.58,0-2.64-1.06-2.64-2.55,0-2.28,2.55-6.5,5.45-11.43,3.52-5.8,6.06-9.93,6.06-11.78q0-.18-.44-.18c-4.22,0-12.48,7.03-30.06,25.58l-.44.97c-.26.62-.18,1.41-.7,1.67-.97.44-2.9-.18-3.25-1.49Z"/><path class="cls-1" d="M114.5,122.12c0-3.78,5.71-15.91,13.45-31.82-8.35-.44-17.84-.88-25.84-.88-7.21,0-13.09.35-16.17,1.32-.09.09-.26.09-.44.09-.79,0-1.41-.62-1.41-1.41,0-.62.44-1.14.97-1.32,3.43-1.14,9.76-1.49,17.05-1.49,8.53,0,18.55.53,27.16.97l1.67-3.43,2.11-4.48c.26-.44.79-.79,1.32-.79.79,0,1.41.62,1.41,1.41,0,.26-.09.44-.18.62l-2.11,4.48-1.14,2.29c5.63.26,44.22-.13,47.38-.13,1.49,0,2.46,0,3.08-.18h.26c.79,0,1.41.62,1.41,1.41,0,.7-.53,1.23-1.14,1.41-.79.09-2.02.18-3.6.18-3.43,0-42.55.4-48.7.13-7.47,15.47-13.01,27.16-13.62,31.03,3.6-.79,10.9-5.71,25.49-15.47.26-.18.53-.26.79-.26.79,0,1.41.62,1.41,1.41,0,.53-.26.88-.62,1.14-16,10.81-23.82,16-27.95,16.08-1.14,0-2.02-.88-2.02-2.28Z"/><path class="cls-1" d="M139.1,116.14c0-1.76.44-3.95,1.32-6.06,2.9-6.5,8.53-10.63,14.94-10.63.79,0,1.41.62,1.41,1.41s-.62,1.41-1.41,1.41c-5.36,0-9.84,3.25-12.3,8.88-.79,1.85-1.14,3.52-1.14,5.01,0,3.87,1.85,5.98,5.54,5.98,5.54,0,12.04-5.63,15.56-12.31,1.41-2.64,2.02-4.75,2.02-6.59,0-3.69-2.28-5.63-7.73-5.63-.79,0-1.49.09-2.37.18h-.18c-.79,0-1.41-.62-1.41-1.41,0-.7.53-1.32,1.32-1.41.88-.09,1.76-.18,2.64-.18,6.59,0,10.55,3.16,10.55,8.44,0,2.28-.79,5.01-2.37,8-3.78,7.12-11.34,13.71-18.02,13.71-5.19,0-8.35-3.69-8.35-8.79Z"/><path class="cls-1" d="M181.42,87.58l1.67-3.43,2.11-4.48c.26-.44.79-.79,1.32-.79.79,0,1.41.62,1.41,1.41,0,.26-.09.44-.18.62l-2.11,4.48-1.14,2.29c5.63.26,10.46.53,13.62.53,1.49,0,2.46,0,3.08-.18h.26c.79,0,1.41.62,1.41,1.41,0,.7-.53,1.23-1.14,1.41-.79.09-2.02.18-3.6.18-3.43,0-8.79-.26-14.94-.53-7.47,15.47-13.01,27.16-13.62,31.03,3.6-.79,10.9-5.71,25.49-15.47.26-.18.53-.26.79-.26.79,0,1.41.62,1.41,1.41,0,.53-.26.88-.61,1.14-16,10.81-23.82,16-27.95,16.08-1.14,0-2.02-.88-2.02-2.28,0-3.78,5.71-15.91,13.45-31.82"/><path class="cls-1" d="M189.51,118.87c0-12.92,14.06-21.97,27.42-22.76h.18c.79-.09,1.41.62,1.41,1.41,0,.7-.53,1.32-1.23,1.41-12.57,1.58-24.96,8.79-24.96,19.95,0,2.72,1.14,4.13,3.25,4.13,2.46,0,13.62-7.91,21.18-16.08l1.14-2.37c.35-.7.79-1.06,1.49-1.06,3.16,0,3.43.79,1.32,3.16l-1.58,1.84c-.79,1.49-1.49,2.9-2.2,4.22-2.37,4.57-4.31,8.17-4.31,9.84,4.31-.18,13.36-7.21,24.17-16.52.18-.26.53-.35.88-.35.79,0,1.41.62,1.41,1.41,0,.44-.18.79-.53,1.06-10.99,9.49-20.65,17.14-26.02,17.23-1.76,0-2.72-1.14-2.72-2.72,0-1.84,1.23-4.66,2.9-7.91-6.94,6.15-14.41,11.07-17.14,11.07-3.6,0-6.06-2.99-6.06-6.94ZM211.48,91.1c0-.26.09-.44.18-.62l3.52-7.47c.26-.44.79-.79,1.32-.79.79,0,1.41.62,1.41,1.41,0,.26-.09.44-.18.62l-3.52,7.47c-.26.44-.79.79-1.32.79-.79,0-1.41-.62-1.41-1.41ZM225.89,92.06c0-.26.09-.44.18-.62l3.95-8.53c.26-.44.7-.79,1.32-.79.79,0,1.41.62,1.41,1.41,0,.26-.09.44-.18.62l-3.96,8.53c-.26.44-.7.79-1.32.79-.79,0-1.41-.62-1.41-1.41Z"/><path class="cls-1" d="M228.26,125.46l-.09-.18c-.26-.7-.09-1.32.35-1.93l1.49-1.84,19.98-42.76c.26-.53.7-.88,1.32-.88.79,0,1.41.62,1.41,1.41,0,.18-.09.44-.09.62l-16.11,33.53c13.53-15.82,19.51-17.75,23.82-17.75,1.67,0,3.08,1.23,3.08,3.69,0,2.28-1.14,6.15-4.57,12.48l-1.49,2.64c-1.85,3.43-3.25,5.8-3.43,7.12,2.9-.35,9.49-5.1,23.38-15.56.26-.18.53-.26.88-.26.79,0,1.41.62,1.41,1.41,0,.44-.26.88-.61,1.14-14.41,10.81-21.53,16.08-25.4,16.08-1.58,0-2.55-.97-2.55-2.46,0-1.84,1.76-5.01,3.87-8.79l1.49-2.72c3.25-5.98,4.22-9.23,4.22-11.07q0-.88-.26-.88c-4.22,0-10.55,2.2-27.95,24.43l-1.23,2.99c-.35.79-.88,1.05-1.58.88-.7-.26-1.14-.62-1.32-1.32Z"/><path class="cls-1" d="M270.97,121.86c0-2.72,3.08-9.23,9.14-21.8h-4.13c-.79,0-1.41-.62-1.41-1.41s.61-1.41,1.41-1.41h5.54l.7-1.49,1.93-4.04c.26-.44.79-.79,1.32-.79.79,0,1.41.62,1.41,1.41,0,.26-.09.44-.18.62l-1.93,4.04-.09.26c3.87-.09,7.56-.26,10.99-.97h.26c.79,0,1.41.62,1.41,1.41,0,.7-.53,1.23-1.14,1.41-4.04.7-8.53.88-12.92.97-6.15,12.74-9.23,19.07-9.41,21.53,3.34-.53,10.72-5.27,25.93-15.56.26-.18.53-.26.79-.26.79,0,1.41.62,1.41,1.41,0,.53-.26.88-.61,1.14-16,10.81-23.82,16-27.95,16.08-1.41,0-2.46-.97-2.46-2.55Z"/><path class="cls-1" d="M293.29,121.77c0-2.72,2.99-8.97,8.7-20.92l1.32-2.81c.26-.44.79-.79,1.32-.79.79,0,1.41.62,1.41,1.41,0,.26-.09.44-.18.62l-1.32,2.81c-5.54,11.51-8.26,17.32-8.44,19.51,2.99-.35,9.58-5.19,23.38-15.56.26-.18.53-.26.88-.26.79,0,1.41.62,1.41,1.41,0,.44-.26.88-.62,1.14-14.33,10.72-21.45,16-25.31,16.08-1.49.09-2.55-.97-2.55-2.64ZM306.22,91.54c0-.26.09-.44.18-.62l4.48-8.97c.18-.44.7-.79,1.23-.79.79,0,1.41.62,1.41,1.41,0,.26-.09.44-.18.62l-4.48,8.97c-.18.44-.7.79-1.23.79-.79,0-1.41-.62-1.41-1.41Z"/></g></svg>